<svg width="30" height="30" viewBox="0 0 30 30" fill="none" xmlns="http://www.w3.org/2000/svg">
<g clip-path="url(#clip0_2143_130)">
<path d="M25.0143 13.4675L15.6393 22.8425C15.5523 22.9296 15.4489 22.9988 15.3351 23.0459C15.2212 23.0931 15.0992 23.1174 14.976 23.1174C14.8528 23.1174 14.7309 23.0931 14.617 23.0459C14.5032 22.9988 14.3998 22.9296 14.3128 22.8425L4.93776 13.4675C4.76185 13.2915 4.66302 13.0529 4.66302 12.8042C4.66302 12.5554 4.76185 12.3168 4.93776 12.1409C5.11368 11.965 5.35227 11.8661 5.60105 11.8661C5.84982 11.8661 6.08841 11.965 6.26433 12.1409L14.976 20.8538L23.6878 12.1409C23.7749 12.0538 23.8783 11.9847 23.9921 11.9376C24.1059 11.8904 24.2279 11.8661 24.351 11.8661C24.4742 11.8661 24.5962 11.8904 24.71 11.9376C24.8238 11.9847 24.9272 12.0538 25.0143 12.1409C25.1014 12.228 25.1705 12.3314 25.2177 12.4452C25.2648 12.559 25.2891 12.681 25.2891 12.8042C25.2891 12.9274 25.2648 13.0493 25.2177 13.1631C25.1705 13.2769 25.1014 13.3803 25.0143 13.4675Z" fill="white"/>
</g>
<defs>
<clipPath id="clip0_2143_130">
<rect width="30" height="30" fill="white"/>
</clipPath>
</defs>
</svg>
